 <svg  version="1.0" xmlns="http://www.w3.org/2000/svg"  width="203.000000pt" height="201.000000pt" viewBox="0 0 203.000000 201.000000"  preserveAspectRatio="xMidYMid meet">  <g transform="translate(0.000000,201.000000) scale(0.050000,-0.050000)" fill="#63452c" stroke="none"> <path d="M866 3952 c-53 -44 -71 -49 -115 -32 -104 39 -251 -73 -251 -192 0 -19 -33 -62 -73 -96 -91 -79 -115 -222 -55 -334 l36 -68 14 92 c28 188 242 476 354 477 25 1 74 15 108 33 60 31 139 30 250 -3 36 -11 42 -6 33 27 -33 125 -203 179 -301 96z"/> <path d="M1160 3726 c-115 -40 -641 -417 -671 -481 -70 -148 1 -358 143 -417 92 -39 93 -44 17 -199 -493 -1005 503 -2248 1674 -2089 1673 228 1575 2467 -124 2811 -164 34 -482 32 -594 -2 -42 -13 -45 -8 -45 82 0 198 -218 359 -400 295z m272 -228 l78 -62 -72 14 c-98 18 -198 -62 -198 -159 0 -96 -270 -304 -348 -268 -70 32 -147 6 -190 -65 -43 -71 -62 -45 -62 85 0 133 34 178 240 317 330 221 419 244 552 138z m36 -183 c34 -54 -47 -128 -106 -96 -23 12 -42 38 -42 58 0 81 104 109 148 38z m317 -117 c58 -8 148 -16 200 -17 52 0 95 -10 95 -20 0 -11 26 -15 60 -8 41 8 60 4 60 -13 0 -14 13 -19 32 -12 17 7 42 6 54 -2 12 -7 42 -16 66 -18 134 -14 606 -303 576 -352 -9 -13 -5 -17 8 -8 38 23 322 -383 290 -415 -7 -7 2 -29 20 -49 18 -20 36 -54 39 -75 3 -21 13 -50 22 -64 68 -110 10 -745 -68 -745 -12 0 -18 -12 -15 -26 8 -34 -125 -249 -192 -312 -29 -27 -52 -42 -52 -33 0 8 -16 -3 -35 -26 -49 -58 -279 -183 -337 -183 -26 0 -48 -8 -48 -17 0 -30 -166 -68 -330 -76 -192 -8 -394 10 -379 35 6 10 -1 13 -17 7 -36 -14 -222 59 -434 171 -515 272 -807 926 -649 1456 35 118 42 213 20 281 -12 37 -8 45 22 42 119 -12 214 63 204 160 -9 81 276 297 343 261 80 -43 220 45 220 137 l0 50 60 -57 c43 -41 89 -61 165 -72z m-895 -270 c39 -39 33 -86 -15 -116 -75 -47 -155 70 -83 122 46 34 58 33 98 -6z"/> </g> </svg> 