 <svg  version="1.0" xmlns="http://www.w3.org/2000/svg"  width="202.000000pt" height="206.000000pt" viewBox="0 0 202.000000 206.000000"  preserveAspectRatio="xMidYMid meet">  <g transform="translate(0.000000,206.000000) scale(0.050000,-0.050000)" fill="#63452c" stroke="none"> <path d="M750 4080 c-7 -11 -43 -20 -80 -20 -71 0 -130 -42 -130 -94 0 -17 -22 -52 -50 -78 -28 -25 -50 -68 -50 -96 0 -27 -9 -55 -20 -62 -11 -7 -20 -31 -20 -53 0 -23 -27 -66 -60 -97 -85 -79 -71 -241 22 -271 19 -6 38 -26 42 -45 4 -19 6 28 6 103 0 113 7 142 41 170 39 32 129 201 129 244 0 30 107 141 141 146 16 2 39 11 52 19 27 17 87 -2 87 -28 0 -10 7 -17 15 -15 8 2 29 -2 45 -8 17 -6 83 -21 148 -33 64 -12 143 -35 175 -50 63 -32 67 -28 36 29 -11 22 -37 39 -56 39 -20 0 -47 23 -59 50 -13 28 -35 51 -49 51 -128 7 -166 19 -200 67 -39 53 -140 73 -165 32z"/> <path d="M1110 3709 c-129 -64 -580 -382 -619 -436 -98 -135 -21 -377 142 -445 83 -35 83 -34 -2 -201 -456 -908 325 -2038 1440 -2082 1604 -62 2007 1970 529 2673 -291 139 -722 199 -991 138 l-61 -13 0 95 c0 215 -245 367 -438 271z m307 -209 c88 -64 111 -96 42 -59 -95 50 -218 -37 -220 -155 0 -95 -281 -285 -402 -272 -81 9 -95 5 -141 -51 -51 -60 -52 -60 -64 -17 -45 169 5 262 220 406 351 234 421 252 565 148z m43 -198 c0 -55 -56 -95 -97 -69 -47 30 -53 90 -12 120 44 32 109 2 109 -51z m283 -102 c42 0 57 -7 42 -17 -14 -8 71 -16 190 -16 224 -1 503 -68 573 -138 16 -16 40 -29 52 -29 106 0 464 -341 553 -527 19 -40 42 -73 52 -73 9 0 12 -8 6 -19 -7 -10 6 -48 28 -84 26 -42 35 -83 27 -114 -7 -31 -4 -44 9 -36 31 19 44 -57 45 -252 0 -104 -8 -175 -20 -175 -11 0 -19 -20 -19 -45 2 -43 3 -43 19 -5 15 35 17 33 19 -16 1 -38 -7 -52 -22 -42 -13 8 -18 5 -11 -6 17 -28 -47 -248 -69 -234 -9 6 -17 -7 -17 -27 0 -81 -172 -289 -319 -385 -25 -16 -65 -44 -88 -62 -66 -50 -140 -85 -124 -60 8 13 1 17 -18 10 -17 -7 -31 -20 -31 -30 0 -10 -8 -18 -19 -18 -10 0 -44 -10 -75 -23 -119 -48 -585 -68 -676 -28 -46 20 -64 24 -124 28 -24 2 -57 17 -74 34 -18 17 -40 26 -51 20 -11 -7 -37 5 -59 27 -21 21 -44 33 -50 27 -7 -6 -52 17 -100 52 -49 34 -98 63 -110 63 -38 0 -402 380 -402 420 0 12 -18 46 -39 76 -118 164 -160 686 -82 1005 24 96 24 120 -2 171 l-29 59 67 -8 c88 -10 165 58 165 145 0 97 310 320 397 287 73 -28 156 18 186 104 l19 56 58 -58 c39 -40 77 -57 123 -57z m-865 -296 c41 -76 -61 -142 -117 -75 -13 16 -18 48 -11 70 16 52 101 55 128 5z"/> </g> </svg> 