 <svg  version="1.0" xmlns="http://www.w3.org/2000/svg"  width="202.000000pt" height="196.000000pt" viewBox="0 0 202.000000 196.000000"  preserveAspectRatio="xMidYMid meet">  <g transform="translate(0.000000,196.000000) scale(0.050000,-0.050000)" fill="#63452c" stroke="none"> <path d="M1130 3720 c-93 -41 -602 -394 -636 -443 -95 -131 -40 -361 105 -439 106 -57 107 -62 32 -220 -543 -1142 730 -2424 1992 -2007 1126 373 1203 1877 129 2526 -321 194 -807 287 -1134 218 l-72 -16 2 86 c5 205 -236 375 -418 295z m240 -191 c98 -47 159 -117 77 -88 -111 38 -239 -56 -223 -165 11 -75 -280 -286 -351 -254 -66 30 -157 -4 -195 -75 -54 -101 -80 91 -27 200 32 67 192 200 240 200 16 0 29 7 29 16 0 33 288 197 347 197 20 0 67 -14 103 -31z m86 -233 c9 -72 -52 -107 -113 -64 -75 53 -37 135 57 124 38 -5 52 -19 56 -60z m206 -77 c22 -12 148 -30 280 -41 233 -19 571 -101 550 -135 -5 -8 15 -17 44 -19 30 -2 57 -13 61 -24 3 -11 18 -20 31 -20 106 0 396 -287 535 -530 116 -202 234 -860 145 -805 -10 6 -19 -22 -20 -62 -3 -162 -165 -414 -402 -626 -349 -311 -1201 -287 -1618 47 -236 189 -421 428 -500 645 -60 166 -70 619 -17 800 22 77 25 128 12 186 l-18 81 69 0 c92 0 166 69 166 155 0 96 271 301 350 265 78 -35 179 20 210 114 23 71 25 72 53 32 16 -23 47 -51 69 -63z m-774 -304 c47 -75 -70 -155 -122 -83 -34 46 -33 58 6 98 39 39 86 33 116 -15z"/> </g> </svg> 